<svg xmlns="http://www.w3.org/2000/svg" viewBox="0 0 128 128"><path fill="#3776AB" d="M63.9 0C27.9 0 32.4 16.4 32.4 16.4l.1 16.9h32v4.8H23.5S0 34.1 0 70.4s20.5 35.3 20.5 35.3h12.2V88.1s-.7-20.5 20.2-20.5h32.1s19.5.3 19.5-19.9V20.6S107.4 0 63.9 0zM46.6 11.6c3.8 0 6.9 3.1 6.9 6.8 0 3.8-3.1 6.9-6.9 6.9-3.8 0-6.9-3.1-6.9-6.9.1-3.7 3.1-6.8 6.9-6.8z"/><path fill="#FFC331" d="M64.1 128c36 0 31.5-16.4 31.5-16.4l-.1-16.9h-32v-4.8h41.1S128 93.9 128 57.6 107.5 22.3 107.5 22.3h-12.2v17.6s.7 20.5-20.2 20.5H43s-19.5-.3-19.5 19.9v27.1S20.6 128 64.1 128zm17.3-11.6c-3.8 0-6.9-3.1-6.9-6.8 0-3.8 3.1-6.9 6.9-6.9 3.8 0 6.9 3.1 6.9 6.9-.1 3.7-3.1 6.8-6.9 6.8z"/></svg>
