<svg xmlns="http://www.w3.org/2000/svg" viewBox="0 0 64 64" fill="none"><circle cx="32" cy="32" r="30" fill="#1E293B" stroke="#0EA5E9" stroke-width="2"/><path d="M20 44c0-8 4-20 12-28 8 8 12 20 12 28 0 6-24 6-24 0z" fill="#0EA5E9" opacity="0.15"/><path d="M24 42c0-6 3-15 8-20 5 5 8 14 8 20 0 4-16 4-16 0z" fill="#38BDF8" opacity="0.35"/><path d="M28 40c0-4 2-10 4-12 2 2 4 8 4 12 0 2-8 2-8 0z" fill="#7DD3FC"/><circle cx="28" cy="24" r="2" fill="#38BDF8"/><circle cx="36" cy="24" r="2" fill="#38BDF8"/><path d="M28 30c2 2 6 2 8 0" stroke="#38BDF8" stroke-width="2" stroke-linecap="round"/></svg>
